<svg width="40" height="40" viewBox="0 0 40 40" fill="none" xmlns="http://www.w3.org/2000/svg">
<path d="M19.9999 3.33301C16.9057 3.33301 13.9383 4.56217 11.7503 6.7501C9.56242 8.93802 8.33325 11.9055 8.33325 14.9997C8.33325 18.9663 10.3166 22.4497 13.3333 24.5663V28.333C13.3333 28.775 13.5088 29.199 13.8214 29.5115C14.134 29.8241 14.5579 29.9997 14.9999 29.9997H24.9999C25.4419 29.9997 25.8659 29.8241 26.1784 29.5115C26.491 29.199 26.6666 28.775 26.6666 28.333V24.5663C29.6833 22.4497 31.6666 18.9663 31.6666 14.9997C31.6666 11.9055 30.4374 8.93802 28.2495 6.7501C26.0616 4.56217 23.0941 3.33301 19.9999 3.33301ZM14.9999 34.9997C14.9999 35.4417 15.1755 35.8656 15.4881 36.1782C15.8006 36.4907 16.2246 36.6663 16.6666 36.6663H23.3333C23.7753 36.6663 24.1992 36.4907 24.5118 36.1782C24.8243 35.8656 24.9999 35.4417 24.9999 34.9997V33.333H14.9999V34.9997Z" fill="white"/>
</svg>
