<svg width="40" height="40" viewBox="0 0 40 40" fill="none" xmlns="http://www.w3.org/2000/svg">
<path d="M3.33337 3.33301H26.6667C29.81 3.33301 31.38 3.33301 32.3567 4.30967C33.3334 5.28634 33.3334 6.85634 33.3334 9.99967V19.9997C33.3334 23.143 33.3334 24.713 32.3567 25.6897C31.38 26.6663 29.81 26.6663 26.6667 26.6663H15M16.6667 10.833H26.6667M3.33337 28.333V21.6663C3.33337 20.0947 3.33337 19.3097 3.82171 18.8213C4.31004 18.333 5.09504 18.333 6.66671 18.333H10M3.33337 28.333H10M3.33337 28.333V36.6663M10 18.333V28.333M10 18.333H20M10 28.333V36.6663" stroke="white" stroke-width="1.5" stroke-linecap="round" stroke-linejoin="round"/>
<path d="M10 10.8333C10 11.7174 9.64885 12.5652 9.02373 13.1904C8.39861 13.8155 7.55076 14.1667 6.66671 14.1667C5.78265 14.1667 4.93481 13.8155 4.30968 13.1904C3.68456 12.5652 3.33337 11.7174 3.33337 10.8333C3.33337 9.94928 3.68456 9.10143 4.30968 8.47631C4.93481 7.85119 5.78265 7.5 6.66671 7.5C7.55076 7.5 8.39861 7.85119 9.02373 8.47631C9.64885 9.10143 10 9.94928 10 10.8333Z" stroke="white" stroke-width="1.5" stroke-linecap="round" stroke-linejoin="round"/>
</svg>
