<svg width="40" height="40" viewBox="0 0 40 40" fill="none" xmlns="http://www.w3.org/2000/svg">
<path d="M20 5.00488C19.344 5.00488 18.6945 5.13408 18.0885 5.3851C17.4825 5.63613 16.9318 6.00406 16.468 6.46788C16.0042 6.93171 15.6362 7.48236 15.3852 8.08838C15.1342 8.6944 15.005 9.34393 15.005 9.99988C15.005 10.6558 15.1342 11.3054 15.3852 11.9114C15.6362 12.5174 16.0042 13.0681 16.468 13.5319C16.9318 13.9957 17.4825 14.3636 18.0885 14.6147C18.6945 14.8657 19.344 14.9949 20 14.9949C21.3248 14.9949 22.5953 14.4686 23.532 13.5319C24.4687 12.5951 24.995 11.3246 24.995 9.99988C24.995 8.67513 24.4687 7.40463 23.532 6.46788C22.5953 5.53114 21.3248 5.00488 20 5.00488ZM31.25 7.49988C30.2554 7.49988 29.3016 7.89497 28.5983 8.59823C27.8951 9.30149 27.5 10.2553 27.5 11.2499C27.5 12.2444 27.8951 13.1983 28.5983 13.9015C29.3016 14.6048 30.2554 14.9999 31.25 14.9999C32.2446 14.9999 33.1984 14.6048 33.9017 13.9015C34.6049 13.1983 35 12.2444 35 11.2499C35 10.2553 34.6049 9.30149 33.9017 8.59823C33.1984 7.89497 32.2446 7.49988 31.25 7.49988ZM8.75 7.49988C7.75544 7.49988 6.80161 7.89497 6.09835 8.59823C5.39509 9.30149 5 10.2553 5 11.2499C5 12.2444 5.39509 13.1983 6.09835 13.9015C6.80161 14.6048 7.75544 14.9999 8.75 14.9999C9.74456 14.9999 10.6984 14.6048 11.4017 13.9015C12.1049 13.1983 12.5 12.2444 12.5 11.2499C12.5 10.2553 12.1049 9.30149 11.4017 8.59823C10.6984 7.89497 9.74456 7.49988 8.75 7.49988ZM12.5 19.9824C12.5046 19.3224 12.7701 18.691 13.2384 18.2259C13.7067 17.7609 14.34 17.4999 15 17.4999H25C25.663 17.4999 26.2989 17.7633 26.7678 18.2321C27.2366 18.701 27.5 19.3368 27.5 19.9999V27.4999C27.5007 28.2867 27.3775 29.0688 27.135 29.8174C26.5814 31.5141 25.4411 32.958 23.9188 33.8896C22.3965 34.8213 20.5919 35.1797 18.8291 34.9006C17.0663 34.6214 15.4607 33.723 14.3007 32.3666C13.1407 31.0102 12.5023 29.2847 12.5 27.4999V19.9824ZM10 19.9999C10 19.0874 10.2425 18.2349 10.67 17.4999H5C4.33696 17.4999 3.70107 17.7633 3.23223 18.2321C2.76339 18.701 2.5 19.3368 2.5 19.9999V26.2499C2.49966 27.2731 2.75057 28.2808 3.23068 29.1845C3.7108 30.0881 4.40544 30.86 5.25361 31.4325C6.10177 32.0049 7.07751 32.3603 8.09514 32.4676C9.11277 32.5748 10.1412 32.4305 11.09 32.0474C10.372 30.6382 9.99843 29.0789 10 27.4974V19.9999ZM30 19.9999V27.4999C30 29.1374 29.6075 30.6824 28.91 32.0474C29.8588 32.4305 30.8872 32.5748 31.9049 32.4676C32.9225 32.3603 33.8982 32.0049 34.7464 31.4325C35.5946 30.86 36.2892 30.0881 36.7693 29.1845C37.2494 28.2808 37.5003 27.2731 37.5 26.2499V19.9999C37.5 19.3368 37.2366 18.701 36.7678 18.2321C36.2989 17.7633 35.663 17.4999 35 17.4999H29.33C29.755 18.2349 30 19.0874 30 19.9999Z" fill="white"/>
</svg>
